<svg data-v-fde0c5aa="" xmlns="http://www.w3.org/2000/svg" viewBox="0 0 300 300" class="iconLeftSlogan"><!----><defs data-v-fde0c5aa=""><linearGradient data-v-fde0c5aa="" gradientTransform="rotate(25)" id="257d5b53-bc42-47fc-a695-f2f44b32a3a7" x1="0%" y1="0%" x2="100%" y2="0%"><stop data-v-fde0c5aa="" offset="0%" stop-color="#FD9245" stop-opacity="1"></stop><stop data-v-fde0c5aa="" offset="100%" stop-color="#06A96B" stop-opacity="1"></stop></linearGradient></defs><rect data-v-fde0c5aa="" fill="url(#257d5b53-bc42-47fc-a695-f2f44b32a3a7)" x="0" y="0" width="300px" height="300px" class="logo-background-square"></rect><defs data-v-fde0c5aa=""><!----></defs><g data-v-fde0c5aa="" id="2578ce7a-9f40-40c6-90c7-0b176b2bb490" fill="#ffffff" transform="matrix(2.226349499003643,0,0,2.226349499003643,114.06278626639751,118.1149840638481)"><path d="M5.50 7.29L5.50 7.29L5.50 7.29Q5.94 7.29 6.38 7.34L6.38 7.34L6.38 7.34Q6.82 7.39 7.21 7.47L7.21 7.47L7.21 7.47Q7.60 7.55 7.93 7.65L7.93 7.65L7.93 7.65Q8.25 7.75 8.46 7.85L8.46 7.85L8.46 7.85Q8.49 7.86 8.53 7.89L8.53 7.89L8.53 7.89Q8.57 7.92 8.57 7.99L8.57 7.99L8.57 7.99Q8.57 8.01 8.56 8.05L8.56 8.05L8.56 8.05Q8.55 8.08 8.54 8.11L8.54 8.11L8.46 8.52L8.46 8.52Q8.45 8.60 8.43 8.62L8.43 8.62L8.43 8.62Q8.40 8.63 8.38 8.63L8.38 8.63L8.38 8.63Q8.35 8.63 8.25 8.61L8.25 8.61L8.25 8.61Q8.16 8.59 8.05 8.59L8.05 8.59L8.05 8.59Q7.66 8.59 7.43 8.80L7.43 8.80L7.43 8.80Q7.21 9.01 7.14 9.53L7.14 9.53L6.76 12.72L6.76 12.72Q6.71 13.15 6.48 13.51L6.48 13.51L6.48 13.51Q6.25 13.88 5.82 14.16L5.82 14.16L5.82 14.16Q5.39 14.44 4.75 14.60L4.75 14.60L4.75 14.60Q4.12 14.77 3.27 14.77L3.27 14.77L3.27 14.77Q2.74 14.77 2.24 14.70L2.24 14.70L2.24 14.70Q1.73 14.64 1.30 14.54L1.30 14.54L1.30 14.54Q0.88 14.45 0.56 14.36L0.56 14.36L0.56 14.36Q0.24 14.27 0.08 14.21L0.08 14.21L0.08 14.21Q0.03 14.20-0.00 14.17L-0.00 14.17L-0.00 14.17Q-0.03 14.15-0.03 14.10L-0.03 14.10L-0.03 14.10Q-0.03 14.07-0.03 14.03L-0.03 14.03L-0.03 14.03Q-0.02 14-0.01 13.95L-0.01 13.95L0.08 13.57L0.08 13.57Q0.09 13.51 0.12 13.48L0.12 13.48L0.12 13.48Q0.16 13.45 0.25 13.45L0.25 13.45L0.25 13.45Q0.47 13.45 0.70 13.42L0.70 13.42L0.70 13.42Q0.93 13.40 1.12 13.30L1.12 13.30L1.12 13.30Q1.32 13.19 1.47 12.98L1.47 12.98L1.47 12.98Q1.61 12.77 1.67 12.39L1.67 12.39L2.15 9.09L2.15 9.09Q2.22 8.57 2.53 8.22L2.53 8.22L2.53 8.22Q2.84 7.88 3.29 7.67L3.29 7.67L3.29 7.67Q3.75 7.46 4.32 7.37L4.32 7.37L4.32 7.37Q4.89 7.29 5.50 7.29ZM13.11 14.77L13.11 14.77L13.11 14.77Q12.60 14.77 12.09 14.68L12.09 14.68L12.09 14.68Q11.57 14.60 11.10 14.42L11.10 14.42L11.10 14.42Q10.64 14.25 10.23 13.96L10.23 13.96L10.23 13.96Q9.83 13.67 9.53 13.25L9.53 13.25L9.53 13.25Q9.24 12.84 9.06 12.29L9.06 12.29L9.06 12.29Q8.89 11.74 8.89 11.03L8.89 11.03L8.89 11.03Q8.89 10.33 9.06 9.78L9.06 9.78L9.06 9.78Q9.24 9.23 9.53 8.81L9.53 8.81L9.53 8.81Q9.83 8.39 10.23 8.10L10.23 8.10L10.23 8.10Q10.64 7.81 11.10 7.63L11.10 7.63L11.10 7.63Q11.57 7.45 12.09 7.37L12.09 7.37L12.09 7.37Q12.60 7.29 13.11 7.29L13.11 7.29L13.11 7.29Q13.58 7.29 14.08 7.35L14.08 7.35L14.08 7.35Q14.57 7.40 15.04 7.56L15.04 7.56L15.04 7.56Q15.51 7.71 15.92 7.97L15.92 7.97L15.92 7.97Q16.34 8.24 16.65 8.65L16.65 8.65L16.65 8.65Q16.96 9.06 17.14 9.63L17.14 9.63L17.14 9.63Q17.32 10.20 17.32 10.97L17.32 10.97L17.32 10.97Q17.32 11.76 17.14 12.36L17.14 12.36L17.14 12.36Q16.97 12.95 16.66 13.37L16.66 13.37L16.66 13.37Q16.34 13.79 15.93 14.06L15.93 14.06L15.93 14.06Q15.52 14.33 15.06 14.49L15.06 14.49L15.06 14.49Q14.59 14.64 14.09 14.70L14.09 14.70L14.09 14.70Q13.59 14.77 13.11 14.77ZM15.21 13.13L15.21 13.13L15.21 13.13Q15.42 13.13 15.63 13.03L15.63 13.03L15.63 13.03Q15.84 12.94 16.00 12.70L16.00 12.70L16.00 12.70Q16.16 12.46 16.26 12.04L16.26 12.04L16.26 12.04Q16.36 11.62 16.36 10.97L16.36 10.97L16.36 10.97Q16.36 10.36 16.26 9.96L16.26 9.96L16.26 9.96Q16.16 9.56 16.00 9.33L16.00 9.33L16.00 9.33Q15.83 9.11 15.63 9.02L15.63 9.02L15.63 9.02Q15.42 8.93 15.21 8.93L15.21 8.93L15.21 8.93Q15.05 8.93 14.84 9.00L14.84 9.00L14.84 9.00Q14.64 9.06 14.47 9.29L14.47 9.29L14.47 9.29Q14.29 9.51 14.18 9.92L14.18 9.92L14.18 9.92Q14.06 10.34 14.06 11.03L14.06 11.03L14.06 11.03Q14.06 11.72 14.16 12.13L14.16 12.13L14.16 12.13Q14.25 12.55 14.41 12.77L14.41 12.77L14.41 12.77Q14.57 12.99 14.78 13.06L14.78 13.06L14.78 13.06Q14.98 13.13 15.21 13.13ZM23.35 8.66L23.35 12.86L23.35 12.86Q23.35 13.25 23.48 13.43L23.48 13.43L23.48 13.43Q23.60 13.62 23.91 13.62L23.91 13.62L23.91 13.62Q24.07 13.62 24.24 13.55L24.24 13.55L24.24 13.55Q24.42 13.48 24.51 13.42L24.51 13.42L24.51 7.85L24.51 7.85Q24.51 7.73 24.56 7.63L24.56 7.63L24.56 7.63Q24.62 7.53 24.79 7.53L24.79 7.53L25.23 7.53L25.23 7.53Q25.29 7.53 25.35 7.53L25.35 7.53L25.35 7.53Q25.42 7.54 25.46 7.57L25.46 7.57L25.46 7.57Q25.50 7.60 25.54 7.67L25.54 7.67L25.54 7.67Q25.57 7.73 25.57 7.85L25.57 7.85L25.57 14.21L25.57 14.21Q25.57 14.32 25.54 14.39L25.54 14.39L25.54 14.39Q25.50 14.45 25.46 14.48L25.46 14.48L25.46 14.48Q25.42 14.51 25.35 14.52L25.35 14.52L25.35 14.52Q25.29 14.53 25.23 14.53L25.23 14.53L24.79 14.53L24.79 14.53Q24.62 14.53 24.56 14.42L24.56 14.42L24.56 14.42Q24.51 14.32 24.51 14.10L24.51 14.10L24.51 14.10Q24.36 14.15 24.09 14.25L24.09 14.25L24.09 14.25Q23.82 14.34 23.41 14.43L23.41 14.43L23.41 14.43Q23.00 14.53 22.45 14.59L22.45 14.59L22.45 14.59Q21.89 14.66 21.17 14.66L21.17 14.66L21.17 14.66Q20.43 14.66 19.90 14.54L19.90 14.54L19.90 14.54Q19.36 14.42 19.01 14.14L19.01 14.14L19.01 14.14Q18.66 13.86 18.48 13.42L18.48 13.42L18.48 13.42Q18.31 12.97 18.31 12.33L18.31 12.33L18.31 8.48L18.31 8.48Q18.31 8.24 18.35 8.06L18.35 8.06L18.35 8.06Q18.40 7.88 18.51 7.77L18.51 7.77L18.51 7.77Q18.63 7.65 18.83 7.59L18.83 7.59L18.83 7.59Q19.04 7.53 19.37 7.53L19.37 7.53L22.36 7.53L22.36 7.53Q22.76 7.53 22.96 7.64L22.96 7.64L22.96 7.64Q23.17 7.76 23.26 7.93L23.26 7.93L23.26 7.93Q23.34 8.10 23.35 8.30L23.35 8.30L23.35 8.30Q23.35 8.50 23.35 8.66L23.35 8.66ZM30.75 7.37L30.75 7.37L30.75 7.37Q31.25 7.37 31.75 7.44L31.75 7.44L31.75 7.44Q32.25 7.52 32.71 7.69L32.71 7.69L32.71 7.69Q33.17 7.86 33.56 8.13L33.56 8.13L33.56 8.13Q33.95 8.41 34.23 8.81L34.23 8.81L34.23 8.81Q34.52 9.21 34.69 9.75L34.69 9.75L34.69 9.75Q34.85 10.29 34.85 10.99L34.85 10.99L34.85 10.99Q34.85 11.85 34.60 12.47L34.60 12.47L34.60 12.47Q34.36 13.10 33.95 13.52L33.95 13.52L33.95 13.52Q33.54 13.95 33.00 14.19L33.00 14.19L33.00 14.19Q32.46 14.43 31.86 14.53L31.86 14.53L31.86 16.39L31.86 16.39Q31.86 16.63 31.82 16.81L31.82 16.81L31.82 16.81Q31.78 16.99 31.67 17.11L31.67 17.11L31.67 17.11Q31.57 17.23 31.37 17.28L31.37 17.28L31.37 17.28Q31.18 17.34 30.87 17.34L30.87 17.34L27.88 17.34L27.88 17.34Q27.55 17.34 27.34 17.28L27.34 17.28L27.34 17.28Q27.14 17.22 27.02 17.10L27.02 17.10L27.02 17.10Q26.91 16.98 26.87 16.80L26.87 16.80L26.87 16.80Q26.82 16.63 26.82 16.39L26.82 16.39L26.82 10.92L26.82 10.92Q26.82 10.07 27.09 9.41L27.09 9.41L27.09 9.41Q27.35 8.74 27.85 8.29L27.85 8.29L27.85 8.29Q28.36 7.84 29.08 7.60L29.08 7.60L29.08 7.60Q29.81 7.37 30.75 7.37ZM33.88 10.98L33.88 10.98L33.88 10.98Q33.88 10.45 33.76 10.00L33.76 10.00L33.76 10.00Q33.65 9.55 33.40 9.20L33.40 9.20L33.40 9.20Q33.15 8.85 32.77 8.63L32.77 8.63L32.77 8.63Q32.40 8.41 31.86 8.35L31.86 8.35L31.86 13.65L31.86 13.65Q32.40 13.58 32.77 13.36L32.77 13.36L32.77 13.36Q33.15 13.13 33.40 12.78L33.40 12.78L33.40 12.78Q33.65 12.42 33.76 11.96L33.76 11.96L33.76 11.96Q33.88 11.50 33.88 10.98ZM47.97 7.94L48.96 10.87L49.94 7.92L49.94 7.92Q49.96 7.83 49.99 7.76L49.99 7.76L49.99 7.76Q50.02 7.69 50.07 7.64L50.07 7.64L50.07 7.64Q50.11 7.59 50.20 7.56L50.20 7.56L50.20 7.56Q50.28 7.53 50.42 7.53L50.42 7.53L51.15 7.53L51.15 7.53Q51.29 7.53 51.34 7.57L51.34 7.57L51.34 7.57Q51.40 7.62 51.40 7.70L51.40 7.70L51.40 7.70Q51.40 7.77 51.35 7.89L51.35 7.89L48.86 13.88L48.86 13.88Q48.73 14.20 48.58 14.36L48.58 14.36L48.58 14.36Q48.43 14.53 48.17 14.53L48.17 14.53L47.08 14.53L47.08 14.53Q46.93 14.53 46.82 14.46L46.82 14.46L46.82 14.46Q46.70 14.40 46.62 14.31L46.62 14.31L46.62 14.31Q46.54 14.21 46.48 14.10L46.48 14.10L46.48 14.10Q46.43 13.99 46.40 13.90L46.40 13.90L45.40 11.25L44.31 13.88L44.31 13.88Q44.18 14.20 44.03 14.36L44.03 14.36L44.03 14.36Q43.88 14.53 43.62 14.53L43.62 14.53L42.53 14.53L42.53 14.53Q42.38 14.53 42.27 14.46L42.27 14.46L42.27 14.46Q42.16 14.40 42.08 14.31L42.08 14.31L42.08 14.31Q41.99 14.21 41.94 14.10L41.94 14.10L41.94 14.10Q41.88 13.99 41.84 13.90L41.84 13.90L39.53 8.09L39.53 8.09Q39.48 7.96 39.48 7.85L39.48 7.85L39.48 7.85Q39.48 7.67 39.59 7.60L39.59 7.60L39.59 7.60Q39.71 7.53 39.84 7.53L39.84 7.53L42.55 7.53L42.55 7.53Q42.72 7.53 42.84 7.55L42.84 7.55L42.84 7.55Q42.96 7.57 43.04 7.62L43.04 7.62L43.04 7.62Q43.13 7.66 43.18 7.74L43.18 7.74L43.18 7.74Q43.24 7.82 43.29 7.94L43.29 7.94L44.41 10.87L44.81 9.65L44.23 8.09L44.23 8.09Q44.17 7.94 44.17 7.84L44.17 7.84L44.17 7.84Q44.17 7.66 44.29 7.59L44.29 7.59L44.29 7.59Q44.40 7.53 44.54 7.53L44.54 7.53L47.24 7.53L47.24 7.53Q47.58 7.53 47.74 7.61L47.74 7.61L47.74 7.61Q47.89 7.70 47.97 7.94L47.97 7.94ZM52.10 13.58L52.10 8.48L52.10 8.48Q52.10 8.24 52.14 8.06L52.14 8.06L52.14 8.06Q52.18 7.88 52.29 7.77L52.29 7.77L52.29 7.77Q52.41 7.65 52.62 7.59L52.62 7.59L52.62 7.59Q52.82 7.53 53.15 7.53L53.15 7.53L56.14 7.53L56.14 7.53Q56.46 7.53 56.65 7.58L56.65 7.58L56.65 7.58Q56.85 7.64 56.96 7.76L56.96 7.76L56.96 7.76Q57.07 7.88 57.10 8.05L57.10 8.05L57.10 8.05Q57.13 8.23 57.13 8.48L57.13 8.48L57.13 13.59L57.13 13.59Q57.13 13.82 57.10 14.00L57.10 14.00L57.10 14.00Q57.07 14.17 56.96 14.29L56.96 14.29L56.96 14.29Q56.85 14.41 56.65 14.47L56.65 14.47L56.65 14.47Q56.46 14.53 56.14 14.53L56.14 14.53L53.15 14.53L53.15 14.53Q52.82 14.53 52.62 14.46L52.62 14.46L52.62 14.46Q52.41 14.40 52.29 14.29L52.29 14.29L52.29 14.29Q52.18 14.17 52.14 13.99L52.14 13.99L52.14 13.99Q52.10 13.82 52.10 13.58L52.10 13.58ZM52.35 4.60L52.35 4.60L52.35 4.60Q52.35 4.13 52.53 3.71L52.53 3.71L52.53 3.71Q52.71 3.29 53.02 2.99L53.02 2.99L53.02 2.99Q53.33 2.68 53.74 2.50L53.74 2.50L53.74 2.50Q54.16 2.32 54.63 2.32L54.63 2.32L54.63 2.32Q55.10 2.32 55.51 2.50L55.51 2.50L55.51 2.50Q55.92 2.68 56.23 2.99L56.23 2.99L56.23 2.99Q56.54 3.29 56.72 3.71L56.72 3.71L56.72 3.71Q56.90 4.13 56.90 4.60L56.90 4.60L56.90 4.60Q56.90 5.07 56.72 5.48L56.72 5.48L56.72 5.48Q56.54 5.89 56.23 6.20L56.23 6.20L56.23 6.20Q55.92 6.51 55.51 6.69L55.51 6.69L55.51 6.69Q55.10 6.87 54.63 6.87L54.63 6.87L54.63 6.87Q54.16 6.87 53.74 6.69L53.74 6.69L53.74 6.69Q53.33 6.51 53.02 6.20L53.02 6.20L53.02 6.20Q52.71 5.89 52.53 5.48L52.53 5.48L52.53 5.48Q52.35 5.07 52.35 4.60ZM58.21 8.37L58.21 7.75L58.21 7.75Q58.21 7.64 58.26 7.58L58.26 7.58L58.26 7.58Q58.31 7.53 58.47 7.53L58.47 7.53L65.07 7.53L65.07 7.53Q65.33 7.53 65.43 7.59L65.43 7.59L65.43 7.59Q65.54 7.65 65.54 7.81L65.54 7.81L65.54 7.81Q65.54 8.00 65.41 8.22L65.41 8.22L62.69 13.56L62.69 13.56Q63.32 13.54 63.85 13.52L63.85 13.52L63.85 13.52Q64.07 13.51 64.30 13.50L64.30 13.50L64.30 13.50Q64.52 13.49 64.71 13.49L64.71 13.49L64.71 13.49Q64.90 13.48 65.04 13.48L65.04 13.48L65.04 13.48Q65.17 13.47 65.23 13.47L65.23 13.47L65.23 13.47Q65.34 13.47 65.45 13.52L65.45 13.52L65.45 13.52Q65.55 13.56 65.55 13.70L65.55 13.70L65.55 14.19L65.55 14.19Q65.55 14.31 65.47 14.42L65.47 14.42L65.47 14.42Q65.39 14.53 65.16 14.53L65.16 14.53L58.29 14.53L58.29 14.53Q58.09 14.53 58.00 14.44L58.00 14.44L58.00 14.44Q57.90 14.36 57.90 14.25L57.90 14.25L57.90 14.25Q57.90 14.11 57.95 13.98L57.95 13.98L57.95 13.98Q58.00 13.85 58.12 13.63L58.12 13.63L60.77 8.48L60.77 8.48Q60.24 8.51 59.78 8.53L59.78 8.53L59.78 8.53Q59.58 8.54 59.38 8.55L59.38 8.55L59.38 8.55Q59.19 8.56 59.00 8.57L59.00 8.57L59.00 8.57Q58.82 8.57 58.68 8.58L58.68 8.58L58.68 8.58Q58.54 8.58 58.45 8.58L58.45 8.58L58.45 8.58Q58.37 8.58 58.29 8.54L58.29 8.54L58.29 8.54Q58.21 8.50 58.21 8.37L58.21 8.37Z"></path></g><defs data-v-fde0c5aa=""><!----></defs><g data-v-fde0c5aa="" id="83566372-6167-426d-9003-cb07173d0658" stroke="none" fill="#ffffff" transform="matrix(1.9061248680866683,0,0,1.9061248680866683,40,119.51153113527009)"><path d="M31 .995v30H1v-30h30m1-1H0v32h32v-32z"></path><path d="M16 7.045L24.955 16 16 24.955 7.045 16 16 7.045m0-1.414L5.631 16 16 26.369 26.369 16 16 5.631z"></path><path d="M16 12.538L19.462 16 16 19.462 12.538 16 16 12.538m0-1.414L11.124 16 16 20.876 20.876 16 16 11.124z"></path></g><defs data-v-fde0c5aa=""><!----></defs><g data-v-fde0c5aa="" id="7205d0ed-7084-43a6-8624-36c7a0323587" fill="#ffffff" transform="matrix(0.45392198660577193,0,0,0.45392198660577193,113.35596579281054,164.57283424178513)"><path d="M10.54 5.74L10.54 5.74L10.54 5.74Q10.58 5.98 10.61 6.07L10.61 6.07L10.61 6.07Q10.63 6.16 10.63 6.31L10.63 6.31L10.63 6.31Q10.63 6.78 10.42 7.18L10.42 7.18L10.42 7.18Q10.22 7.57 9.87 7.74L9.87 7.74L9.87 7.74Q9.59 7.36 9.18 7.09L9.18 7.09L9.18 7.09Q8.78 6.82 8.29 6.64L8.29 6.64L8.29 6.64Q7.81 6.47 7.29 6.38L7.29 6.38L7.29 6.38Q6.78 6.30 6.29 6.30L6.29 6.30L6.29 6.30Q5.80 6.30 5.37 6.38L5.37 6.38L5.37 6.38Q4.94 6.45 4.61 6.59L4.61 6.59L4.61 6.59Q4.28 6.72 4.09 6.92L4.09 6.92L4.09 6.92Q3.91 7.11 3.91 7.36L3.91 7.36L3.91 7.36Q3.95 7.67 4.28 7.99L4.28 7.99L4.28 7.99Q4.62 8.30 5.11 8.60L5.11 8.60L5.11 8.60Q5.60 8.90 6.20 9.20L6.20 9.20L6.20 9.20Q6.79 9.49 7.36 9.76L7.36 9.76L7.36 9.76Q8.08 10.09 8.60 10.38L8.60 10.38L8.60 10.38Q9.11 10.67 9.45 11.01L9.45 11.01L9.45 11.01Q9.79 11.35 9.95 11.79L9.95 11.79L9.95 11.79Q10.12 12.22 10.12 12.84L10.12 12.84L10.12 12.84Q10.12 13.55 9.88 14.18L9.88 14.18L9.88 14.18Q9.65 14.80 9.19 15.26L9.19 15.26L9.19 15.26Q8.74 15.72 8.09 15.98L8.09 15.98L8.09 15.98Q7.45 16.24 6.65 16.24L6.65 16.24L6.65 16.24Q5.87 16.24 4.96 16.00L4.96 16.00L4.96 16.00Q4.05 15.76 3.25 15.35L3.25 15.35L3.25 15.35Q2.46 14.94 1.94 14.40L1.94 14.40L1.94 14.40Q1.41 13.86 1.41 13.26L1.41 13.26L1.41 13.26Q1.41 12.98 1.57 12.54L1.57 12.54L1.57 12.54Q1.74 12.11 2.16 11.63L2.16 11.63L2.16 11.63Q2.20 12.05 2.61 12.63L2.61 12.63L2.61 12.63Q3.02 13.20 3.85 13.69L3.85 13.69L3.85 13.69Q4.62 14.14 5.44 14.34L5.44 14.34L5.44 14.34Q6.26 14.55 6.97 14.55L6.97 14.55L6.97 14.55Q7.76 14.55 8.25 14.35L8.25 14.35L8.25 14.35Q8.74 14.15 9.02 13.88L9.02 13.88L9.02 13.88Q9.30 13.61 9.41 13.33L9.41 13.33L9.41 13.33Q9.52 13.05 9.53 12.88L9.53 12.88L9.53 12.88Q9.52 12.60 9.28 12.34L9.28 12.34L9.28 12.34Q9.03 12.08 8.62 11.84L8.62 11.84L8.62 11.84Q8.20 11.59 7.66 11.34L7.66 11.34L7.66 11.34Q7.11 11.09 6.52 10.84L6.52 10.84L6.52 10.84Q5.64 10.44 5.00 10.10L5.00 10.10L5.00 10.10Q4.37 9.76 3.96 9.40L3.96 9.40L3.96 9.40Q3.54 9.04 3.35 8.65L3.35 8.65L3.35 8.65Q3.16 8.26 3.16 7.76L3.16 7.76L3.16 7.76Q3.16 6.97 3.64 6.27L3.64 6.27L3.64 6.27Q4.12 5.57 5.01 5.21L5.01 5.21L5.01 5.21Q5.46 5.01 5.97 4.93L5.97 4.93L5.97 4.93Q6.48 4.84 6.97 4.84L6.97 4.84L6.97 4.84Q7.90 4.84 8.78 5.10L8.78 5.10L8.78 5.10Q9.66 5.35 10.54 5.74ZM20.52 6.69L20.52 6.69L20.52 6.69Q19.96 6.69 19.66 6.38L19.66 6.38L19.66 6.38Q19.36 6.06 19.36 5.61L19.36 5.61L19.36 5.61Q19.36 5.50 19.40 5.35L19.40 5.35L19.40 5.35Q19.43 5.19 19.49 5.08L19.49 5.08L19.49 5.08Q19.67 5.17 20.03 5.20L20.03 5.20L20.03 5.20Q20.38 5.24 20.86 5.24L20.86 5.24L20.86 5.24Q21.57 5.24 22.48 5.17L22.48 5.17L22.48 5.17Q23.38 5.11 24.21 5.04L24.21 5.04L24.21 5.04Q25.03 4.97 25.66 4.91L25.66 4.91L25.66 4.91Q26.29 4.84 26.47 4.84L26.47 4.84L26.47 4.84Q26.99 4.84 27.22 5.23L27.22 5.23L27.22 5.23Q27.45 5.61 27.57 6.26L27.57 6.26L27.57 6.26Q27.20 6.23 26.84 6.21L26.84 6.21L26.84 6.21Q26.49 6.19 26.24 6.19L26.24 6.19L26.24 6.19Q25.79 6.19 25.33 6.22L25.33 6.22L25.33 6.22Q24.88 6.24 24.42 6.30L24.42 6.30L24.42 6.30Q24.22 6.71 23.98 7.26L23.98 7.26L23.98 7.26Q23.74 7.81 23.51 8.41L23.51 8.41L23.51 8.41Q23.28 9.02 23.07 9.61L23.07 9.61L23.07 9.61Q22.86 10.21 22.71 10.68L22.71 10.68L22.71 10.68Q22.40 11.61 22.17 12.39L22.17 12.39L22.17 12.39Q21.94 13.17 21.76 13.85L21.76 13.85L21.76 13.85Q21.59 14.53 21.46 15.15L21.46 15.15L21.46 15.15Q21.34 15.76 21.24 16.35L21.24 16.35L21.24 16.35Q20.30 16.21 19.67 15.18L19.67 15.18L19.67 15.18Q19.78 14.74 19.94 14.23L19.94 14.23L19.94 14.23Q20.10 13.72 20.32 13.07L20.32 13.07L20.32 13.07Q20.54 12.42 20.83 11.59L20.83 11.59L20.83 11.59Q21.13 10.77 21.50 9.72L21.50 9.72L21.50 9.72Q21.64 9.32 21.80 8.90L21.80 8.90L21.80 8.90Q21.95 8.47 22.10 8.05L22.10 8.05L22.10 8.05Q22.25 7.63 22.37 7.24L22.37 7.24L22.37 7.24Q22.48 6.85 22.57 6.52L22.57 6.52L22.57 6.52Q21.98 6.59 21.46 6.64L21.46 6.64L21.46 6.64Q20.93 6.69 20.52 6.69ZM42.50 7.46L42.50 7.46L42.50 7.46Q42.50 8.13 42.20 8.73L42.20 8.73L42.20 8.73Q41.90 9.32 41.37 9.79L41.37 9.79L41.37 9.79Q40.84 10.26 40.12 10.58L40.12 10.58L40.12 10.58Q39.41 10.91 38.57 11.02L38.57 11.02L38.57 11.02Q38.78 11.65 39.08 12.31L39.08 12.31L39.08 12.31Q39.38 12.98 39.73 13.59L39.73 13.59L39.73 13.59Q40.08 14.21 40.46 14.73L40.46 14.73L40.46 14.73Q40.84 15.25 41.20 15.58L41.20 15.58L41.20 15.58Q41.13 15.72 41.00 15.86L41.00 15.86L41.00 15.86Q40.87 16.00 40.69 16.12L40.69 16.12L40.69 16.12Q40.52 16.24 40.33 16.32L40.33 16.32L40.33 16.32Q40.14 16.39 39.97 16.39L39.97 16.39L39.97 16.39Q39.66 16.39 39.38 16.10L39.38 16.10L39.38 16.10Q39.10 15.81 38.81 15.17L38.81 15.17L38.81 15.17Q38.53 14.53 38.21 13.52L38.21 13.52L38.21 13.52Q37.90 12.50 37.52 11.07L37.52 11.07L37.52 11.07Q37.37 11.07 37.21 11.07L37.21 11.07L37.21 11.07Q37.06 11.07 36.97 11.05L36.97 11.05L36.97 11.05Q36.88 10.99 36.76 10.85L36.76 10.85L36.76 10.85Q36.39 11.66 36.09 12.38L36.09 12.38L36.09 12.38Q35.80 13.09 35.57 13.76L35.57 13.76L35.57 13.76Q35.34 14.42 35.16 15.04L35.16 15.04L35.16 15.04Q34.99 15.67 34.86 16.31L34.86 16.31L34.86 16.31Q34.38 16.20 34.03 15.90L34.03 15.90L34.03 15.90Q33.68 15.61 33.38 15.08L33.38 15.08L33.38 15.08Q33.43 14.95 33.49 14.83L33.49 14.83L33.49 14.83Q33.56 14.71 33.66 14.50L33.66 14.50L33.66 14.50Q33.75 14.28 33.90 13.94L33.90 13.94L33.90 13.94Q34.05 13.61 34.29 13.05L34.29 13.05L34.29 13.05Q34.54 12.49 34.88 11.68L34.88 11.68L34.88 11.68Q35.22 10.86 35.71 9.70L35.71 9.70L35.71 9.70Q35.94 9.18 36.10 8.79L36.10 8.79L36.10 8.79Q36.26 8.40 36.39 8.04L36.39 8.04L36.39 8.04Q36.51 7.69 36.62 7.33L36.62 7.33L36.62 7.33Q36.72 6.97 36.83 6.51L36.83 6.51L36.83 6.51Q36.19 6.73 35.64 7.01L35.64 7.01L35.64 7.01Q35.08 7.28 34.72 7.59L34.72 7.59L34.72 7.59Q34.59 7.50 34.46 7.34L34.46 7.34L34.46 7.34Q34.33 7.17 34.22 6.96L34.22 6.96L34.22 6.96Q34.10 6.76 34.02 6.55L34.02 6.55L34.02 6.55Q33.94 6.34 33.92 6.17L33.92 6.17L33.92 6.17Q34.34 5.89 34.95 5.66L34.95 5.66L34.95 5.66Q35.56 5.42 36.25 5.24L36.25 5.24L36.25 5.24Q36.93 5.07 37.65 4.97L37.65 4.97L37.65 4.97Q38.36 4.87 38.98 4.87L38.98 4.87L38.98 4.87Q40.66 4.87 41.58 5.56L41.58 5.56L41.58 5.56Q42.50 6.26 42.50 7.46ZM38.92 6.02L39.09 6.29L39.09 6.29Q38.99 6.41 38.78 6.79L38.78 6.79L38.78 6.79Q38.57 7.17 38.30 7.69L38.30 7.69L38.30 7.69Q38.02 8.22 37.72 8.83L37.72 8.83L37.72 8.83Q37.42 9.45 37.14 10.05L37.14 10.05L37.14 10.05Q38.19 10.05 39.07 9.86L39.07 9.86L39.07 9.86Q39.96 9.66 40.60 9.30L40.60 9.30L40.60 9.30Q41.24 8.95 41.60 8.46L41.60 8.46L41.60 8.46Q41.96 7.98 41.96 7.39L41.96 7.39L41.96 7.39Q41.96 6.69 41.45 6.32L41.45 6.32L41.45 6.32Q40.95 5.95 39.90 5.95L39.90 5.95L39.90 5.95Q39.66 5.95 39.42 5.97L39.42 5.97L39.42 5.97Q39.19 5.99 38.92 6.02L38.92 6.02ZM55.33 9.21L55.33 9.21L55.33 9.21Q55.79 9.21 56.05 9.46L56.05 9.46L56.05 9.46Q56.31 9.72 56.31 10.16L56.31 10.16L56.31 10.16Q56.31 10.28 56.29 10.39L56.29 10.39L56.29 10.39Q56.27 10.51 56.24 10.60L56.24 10.60L56.24 10.60Q56.06 10.57 55.83 10.55L55.83 10.55L55.83 10.55Q55.61 10.53 55.30 10.53L55.30 10.53L55.30 10.53Q54.70 10.53 54.08 10.63L54.08 10.63L54.08 10.63Q53.47 10.74 52.91 10.81L52.91 10.81L52.91 10.81Q52.58 11.55 52.32 12.24L52.32 12.24L52.32 12.24Q52.05 12.94 51.86 13.51L51.86 13.51L51.86 13.51Q51.67 14.08 51.57 14.50L51.57 14.50L51.57 14.50Q51.46 14.92 51.45 15.13L51.45 15.13L51.45 15.13Q52.58 14.90 53.74 14.73L53.74 14.73L53.74 14.73Q54.89 14.56 56.17 14.48L56.17 14.48L56.17 14.48Q56.32 14.71 56.43 14.99L56.43 14.99L56.43 14.99Q56.53 15.27 56.53 15.60L56.53 15.60L56.53 15.60Q56.53 15.68 56.53 15.78L56.53 15.78L56.53 15.78Q56.53 15.88 56.50 15.97L56.50 15.97L56.50 15.97Q56.11 15.96 55.68 15.95L55.68 15.95L55.68 15.95Q55.24 15.95 54.54 15.95L54.54 15.95L54.54 15.95Q54.08 15.95 53.67 15.97L53.67 15.97L53.67 15.97Q53.26 15.99 52.84 16.03L52.84 16.03L52.84 16.03Q52.42 16.07 51.95 16.14L51.95 16.14L51.95 16.14Q51.48 16.21 50.89 16.31L50.89 16.31L50.89 16.31Q50.25 16.06 49.64 15.08L49.64 15.08L49.64 15.08Q49.88 14.57 50.31 13.54L50.31 13.54L50.31 13.54Q50.74 12.52 51.39 10.79L51.39 10.79L51.39 10.79Q50.76 10.60 50.57 10.09L50.57 10.09L50.57 10.09Q50.64 10.02 50.97 9.92L50.97 9.92L50.97 9.92Q51.31 9.81 51.80 9.70L51.80 9.70L51.80 9.70Q52.01 9.16 52.16 8.75L52.16 8.75L52.16 8.75Q52.30 8.34 52.42 7.99L52.42 7.99L52.42 7.99Q52.53 7.63 52.62 7.29L52.62 7.29L52.62 7.29Q52.71 6.94 52.79 6.54L52.79 6.54L52.79 6.54Q52.30 6.51 52.02 6.27L52.02 6.27L52.02 6.27Q51.74 6.02 51.74 5.63L51.74 5.63L51.74 5.63Q51.74 5.52 51.78 5.36L51.78 5.36L51.78 5.36Q51.81 5.21 51.86 5.10L51.86 5.10L51.86 5.10Q52.14 5.14 52.39 5.15L52.39 5.15L52.39 5.15Q52.65 5.17 53.07 5.17L53.07 5.17L53.07 5.17Q53.96 5.17 54.73 5.12L54.73 5.12L54.73 5.12Q55.50 5.07 56.12 5.01L56.12 5.01L56.12 5.01Q56.74 4.96 57.19 4.91L57.19 4.91L57.19 4.91Q57.64 4.86 57.88 4.86L57.88 4.86L57.88 4.86Q58.20 4.86 58.45 5.19L58.45 5.19L58.45 5.19Q58.70 5.53 58.83 6.15L58.83 6.15L58.83 6.15Q58.39 6.10 58.12 6.09L58.12 6.09L58.12 6.09Q57.85 6.08 57.64 6.08L57.64 6.08L57.64 6.08Q56.87 6.08 56.23 6.15L56.23 6.15L56.23 6.15Q55.59 6.23 55.01 6.31L55.01 6.31L55.01 6.31Q54.92 6.44 54.82 6.64L54.82 6.64L54.82 6.64Q54.71 6.83 54.54 7.18L54.54 7.18L54.54 7.18Q54.38 7.53 54.13 8.06L54.13 8.06L54.13 8.06Q53.89 8.60 53.54 9.39L53.54 9.39L53.54 9.39Q54.07 9.31 54.54 9.26L54.54 9.26L54.54 9.26Q55.01 9.21 55.33 9.21ZM74.20 5.74L74.20 5.74L74.20 5.74Q74.24 5.98 74.26 6.07L74.26 6.07L74.26 6.07Q74.28 6.16 74.28 6.31L74.28 6.31L74.28 6.31Q74.28 6.78 74.08 7.18L74.08 7.18L74.08 7.18Q73.88 7.57 73.53 7.74L73.53 7.74L73.53 7.74Q73.25 7.36 72.84 7.09L72.84 7.09L72.84 7.09Q72.44 6.82 71.95 6.64L71.95 6.64L71.95 6.64Q71.47 6.47 70.95 6.38L70.95 6.38L70.95 6.38Q70.43 6.30 69.94 6.30L69.94 6.30L69.94 6.30Q69.45 6.30 69.03 6.38L69.03 6.38L69.03 6.38Q68.60 6.45 68.27 6.59L68.27 6.59L68.27 6.59Q67.94 6.72 67.75 6.92L67.75 6.92L67.75 6.92Q67.56 7.11 67.56 7.36L67.56 7.36L67.56 7.36Q67.61 7.67 67.94 7.99L67.94 7.99L67.94 7.99Q68.28 8.30 68.77 8.60L68.77 8.60L68.77 8.60Q69.26 8.90 69.85 9.20L69.85 9.20L69.85 9.20Q70.45 9.49 71.02 9.76L71.02 9.76L71.02 9.76Q71.74 10.09 72.25 10.38L72.25 10.38L72.25 10.38Q72.77 10.67 73.11 11.01L73.11 11.01L73.11 11.01Q73.44 11.35 73.61 11.79L73.61 11.79L73.61 11.79Q73.78 12.22 73.78 12.84L73.78 12.84L73.78 12.84Q73.78 13.55 73.54 14.18L73.54 14.18L73.54 14.18Q73.30 14.80 72.85 15.26L72.85 15.26L72.85 15.26Q72.39 15.72 71.75 15.98L71.75 15.98L71.75 15.98Q71.11 16.24 70.31 16.24L70.31 16.24L70.31 16.24Q69.52 16.24 68.61 16.00L68.61 16.00L68.61 16.00Q67.70 15.76 66.91 15.35L66.91 15.35L66.91 15.35Q66.12 14.94 65.60 14.40L65.60 14.40L65.60 14.40Q65.07 13.86 65.07 13.26L65.07 13.26L65.07 13.26Q65.07 12.98 65.23 12.54L65.23 12.54L65.23 12.54Q65.39 12.11 65.81 11.63L65.81 11.63L65.81 11.63Q65.86 12.05 66.27 12.63L66.27 12.63L66.27 12.63Q66.68 13.20 67.51 13.69L67.51 13.69L67.51 13.69Q68.28 14.14 69.10 14.34L69.10 14.34L69.10 14.34Q69.92 14.55 70.63 14.55L70.63 14.55L70.63 14.55Q71.41 14.55 71.90 14.35L71.90 14.35L71.90 14.35Q72.39 14.15 72.67 13.88L72.67 13.88L72.67 13.88Q72.95 13.61 73.07 13.33L73.07 13.33L73.07 13.33Q73.18 13.05 73.19 12.88L73.19 12.88L73.19 12.88Q73.18 12.60 72.93 12.34L72.93 12.34L72.93 12.34Q72.69 12.08 72.28 11.84L72.28 11.84L72.28 11.84Q71.86 11.59 71.32 11.34L71.32 11.34L71.32 11.34Q70.77 11.09 70.18 10.84L70.18 10.84L70.18 10.84Q69.30 10.44 68.66 10.10L68.66 10.10L68.66 10.10Q68.03 9.76 67.61 9.40L67.61 9.40L67.61 9.40Q67.20 9.04 67.01 8.65L67.01 8.65L67.01 8.65Q66.82 8.26 66.82 7.76L66.82 7.76L66.82 7.76Q66.82 6.97 67.30 6.27L67.30 6.27L67.30 6.27Q67.77 5.57 68.67 5.21L68.67 5.21L68.67 5.21Q69.12 5.01 69.63 4.93L69.63 4.93L69.63 4.93Q70.14 4.84 70.63 4.84L70.63 4.84L70.63 4.84Q71.55 4.84 72.44 5.10L72.44 5.10L72.44 5.10Q73.32 5.35 74.20 5.74ZM91.03 5.74L91.03 5.74L91.03 5.74Q91.07 5.98 91.09 6.07L91.09 6.07L91.09 6.07Q91.11 6.16 91.11 6.31L91.11 6.31L91.11 6.31Q91.11 6.78 90.91 7.18L90.91 7.18L90.91 7.18Q90.71 7.57 90.36 7.74L90.36 7.74L90.36 7.74Q90.08 7.36 89.67 7.09L89.67 7.09L89.67 7.09Q89.26 6.82 88.78 6.64L88.78 6.64L88.78 6.64Q88.30 6.47 87.78 6.38L87.78 6.38L87.78 6.38Q87.26 6.30 86.77 6.30L86.77 6.30L86.77 6.30Q86.28 6.30 85.86 6.38L85.86 6.38L85.86 6.38Q85.43 6.45 85.10 6.59L85.10 6.59L85.10 6.59Q84.77 6.72 84.58 6.92L84.58 6.92L84.58 6.92Q84.39 7.11 84.39 7.36L84.39 7.36L84.39 7.36Q84.43 7.67 84.77 7.99L84.77 7.99L84.77 7.99Q85.11 8.30 85.60 8.60L85.60 8.60L85.60 8.60Q86.09 8.90 86.68 9.20L86.68 9.20L86.68 9.20Q87.28 9.49 87.85 9.76L87.85 9.76L87.85 9.76Q88.56 10.09 89.08 10.38L89.08 10.38L89.08 10.38Q89.60 10.67 89.94 11.01L89.94 11.01L89.94 11.01Q90.27 11.35 90.44 11.79L90.44 11.79L90.44 11.79Q90.61 12.22 90.61 12.84L90.61 12.84L90.61 12.84Q90.61 13.55 90.37 14.18L90.37 14.18L90.37 14.18Q90.13 14.80 89.68 15.26L89.68 15.26L89.68 15.26Q89.22 15.72 88.58 15.98L88.58 15.98L88.58 15.98Q87.93 16.24 87.14 16.24L87.14 16.24L87.14 16.24Q86.35 16.24 85.44 16.00L85.44 16.00L85.44 16.00Q84.53 15.76 83.74 15.35L83.74 15.35L83.74 15.35Q82.95 14.94 82.43 14.40L82.43 14.40L82.43 14.40Q81.90 13.86 81.90 13.26L81.90 13.26L81.90 13.26Q81.90 12.98 82.06 12.54L82.06 12.54L82.06 12.54Q82.22 12.11 82.64 11.63L82.64 11.63L82.64 11.63Q82.68 12.05 83.10 12.63L83.10 12.63L83.10 12.63Q83.51 13.20 84.34 13.69L84.34 13.69L84.34 13.69Q85.11 14.14 85.93 14.34L85.93 14.34L85.93 14.34Q86.74 14.55 87.46 14.55L87.46 14.55L87.46 14.55Q88.24 14.55 88.73 14.35L88.73 14.35L88.73 14.35Q89.22 14.15 89.50 13.88L89.50 13.88L89.50 13.88Q89.78 13.61 89.89 13.33L89.89 13.33L89.89 13.33Q90.01 13.05 90.02 12.88L90.02 12.88L90.02 12.88Q90.01 12.60 89.76 12.34L89.76 12.34L89.76 12.34Q89.52 12.08 89.10 11.84L89.10 11.84L89.10 11.84Q88.69 11.59 88.14 11.34L88.14 11.34L88.14 11.34Q87.60 11.09 87.01 10.84L87.01 10.84L87.01 10.84Q86.13 10.44 85.49 10.10L85.49 10.10L85.49 10.10Q84.85 9.76 84.44 9.40L84.44 9.40L84.44 9.40Q84.03 9.04 83.84 8.65L83.84 8.65L83.84 8.65Q83.65 8.26 83.65 7.76L83.65 7.76L83.65 7.76Q83.65 6.97 84.13 6.27L84.13 6.27L84.13 6.27Q84.60 5.57 85.50 5.21L85.50 5.21L85.50 5.21Q85.95 5.01 86.46 4.93L86.46 4.93L86.46 4.93Q86.97 4.84 87.46 4.84L87.46 4.84L87.46 4.84Q88.38 4.84 89.26 5.10L89.26 5.10L89.26 5.10Q90.15 5.35 91.03 5.74ZM114.93 9.34L114.93 9.34L114.93 9.34Q115.37 9.34 115.63 9.59L115.63 9.59L115.63 9.59Q115.89 9.84 115.89 10.29L115.89 10.29L115.89 10.29Q115.89 10.40 115.88 10.52L115.88 10.52L115.88 10.52Q115.86 10.64 115.82 10.72L115.82 10.72L115.82 10.72Q115.64 10.70 115.42 10.68L115.42 10.68L115.42 10.68Q115.19 10.65 114.88 10.65L114.88 10.65L114.88 10.65Q114.25 10.65 113.62 10.77L113.62 10.77L113.62 10.77Q112.99 10.88 112.42 10.95L112.42 10.95L112.42 10.95Q111.79 12.43 111.38 13.73L111.38 13.73L111.38 13.73Q110.98 15.04 110.75 16.31L110.75 16.31L110.75 16.31Q110.28 16.20 109.91 15.90L109.91 15.90L109.91 15.90Q109.55 15.61 109.23 15.08L109.23 15.08L109.23 15.08Q109.33 14.85 109.47 14.54L109.47 14.54L109.47 14.54Q109.61 14.22 109.80 13.74L109.80 13.74L109.80 13.74Q110.00 13.26 110.27 12.56L110.27 12.56L110.27 12.56Q110.54 11.87 110.92 10.91L110.92 10.91L110.92 10.91Q110.33 10.71 110.15 10.22L110.15 10.22L110.15 10.22Q110.22 10.15 110.54 10.06L110.54 10.06L110.54 10.06Q110.87 9.97 111.33 9.86L111.33 9.86L111.33 9.86Q111.54 9.31 111.69 8.88L111.69 8.88L111.69 8.88Q111.85 8.46 111.97 8.07L111.97 8.07L111.97 8.07Q112.10 7.69 112.20 7.32L112.20 7.32L112.20 7.32Q112.31 6.94 112.39 6.52L112.39 6.52L112.32 6.52L112.32 6.52Q111.79 6.52 111.46 6.27L111.46 6.27L111.46 6.27Q111.13 6.02 111.13 5.61L111.13 5.61L111.13 5.61Q111.13 5.50 111.17 5.35L111.17 5.35L111.17 5.35Q111.20 5.19 111.26 5.08L111.26 5.08L111.26 5.08Q111.52 5.12 111.78 5.14L111.78 5.14L111.78 5.14Q112.04 5.15 112.46 5.15L112.46 5.15L112.46 5.15Q113.34 5.15 114.11 5.10L114.11 5.10L114.11 5.10Q114.88 5.05 115.51 5.00L115.51 5.00L115.51 5.00Q116.13 4.94 116.58 4.89L116.58 4.89L116.58 4.89Q117.03 4.84 117.26 4.84L117.26 4.84L117.26 4.84Q117.59 4.84 117.84 5.18L117.84 5.18L117.84 5.18Q118.09 5.52 118.23 6.13L118.23 6.13L118.23 6.13Q117.78 6.09 117.51 6.08L117.51 6.08L117.51 6.08Q117.24 6.06 117.03 6.06L117.03 6.06L117.03 6.06Q116.31 6.06 115.72 6.13L115.72 6.13L115.72 6.13Q115.12 6.19 114.59 6.27L114.59 6.27L114.59 6.27Q114.51 6.40 114.40 6.59L114.40 6.59L114.40 6.59Q114.30 6.79 114.13 7.15L114.13 7.15L114.13 7.15Q113.96 7.50 113.70 8.08L113.70 8.08L113.70 8.08Q113.44 8.65 113.05 9.53L113.05 9.53L113.05 9.53Q113.60 9.45 114.09 9.39L114.09 9.39L114.09 9.39Q114.59 9.34 114.93 9.34ZM133.29 7.46L133.29 7.46L133.29 7.46Q133.29 8.13 132.99 8.73L132.99 8.73L132.99 8.73Q132.69 9.32 132.16 9.79L132.16 9.79L132.16 9.79Q131.63 10.26 130.91 10.58L130.91 10.58L130.91 10.58Q130.20 10.91 129.36 11.02L129.36 11.02L129.36 11.02Q129.57 11.65 129.87 12.31L129.87 12.31L129.87 12.31Q130.17 12.98 130.52 13.59L130.52 13.59L130.52 13.59Q130.87 14.21 131.25 14.73L131.25 14.73L131.25 14.73Q131.63 15.25 131.99 15.58L131.99 15.58L131.99 15.58Q131.92 15.72 131.79 15.86L131.79 15.86L131.79 15.86Q131.66 16.00 131.48 16.12L131.48 16.12L131.48 16.12Q131.31 16.24 131.12 16.32L131.12 16.32L131.12 16.32Q130.93 16.39 130.76 16.39L130.76 16.39L130.76 16.39Q130.45 16.39 130.17 16.10L130.17 16.10L130.17 16.10Q129.89 15.81 129.60 15.17L129.60 15.17L129.60 15.17Q129.32 14.53 129.00 13.52L129.00 13.52L129.00 13.52Q128.69 12.50 128.31 11.07L128.31 11.07L128.31 11.07Q128.16 11.07 128.00 11.07L128.00 11.07L128.00 11.07Q127.85 11.07 127.76 11.05L127.76 11.05L127.76 11.05Q127.67 10.99 127.55 10.85L127.55 10.85L127.55 10.85Q127.18 11.66 126.88 12.38L126.88 12.38L126.88 12.38Q126.59 13.09 126.36 13.76L126.36 13.76L126.36 13.76Q126.13 14.42 125.95 15.04L125.95 15.04L125.95 15.04Q125.78 15.67 125.65 16.31L125.65 16.31L125.65 16.31Q125.17 16.20 124.82 15.90L124.82 15.90L124.82 15.90Q124.47 15.61 124.17 15.08L124.17 15.08L124.17 15.08Q124.22 14.95 124.28 14.83L124.28 14.83L124.28 14.83Q124.35 14.71 124.45 14.50L124.45 14.50L124.45 14.50Q124.54 14.28 124.69 13.94L124.69 13.94L124.69 13.94Q124.84 13.61 125.08 13.05L125.08 13.05L125.08 13.05Q125.33 12.49 125.67 11.68L125.67 11.68L125.67 11.68Q126.01 10.86 126.50 9.70L126.50 9.70L126.50 9.70Q126.73 9.18 126.89 8.79L126.89 8.79L126.89 8.79Q127.05 8.40 127.18 8.04L127.18 8.04L127.18 8.04Q127.30 7.69 127.41 7.33L127.41 7.33L127.41 7.33Q127.51 6.97 127.62 6.51L127.62 6.51L127.62 6.51Q126.98 6.73 126.43 7.01L126.43 7.01L126.43 7.01Q125.87 7.28 125.51 7.59L125.51 7.59L125.51 7.59Q125.38 7.50 125.25 7.34L125.25 7.34L125.25 7.34Q125.12 7.17 125.01 6.96L125.01 6.96L125.01 6.96Q124.89 6.76 124.81 6.55L124.81 6.55L124.81 6.55Q124.73 6.34 124.71 6.17L124.71 6.17L124.71 6.17Q125.13 5.89 125.74 5.66L125.74 5.66L125.74 5.66Q126.35 5.42 127.04 5.24L127.04 5.24L127.04 5.24Q127.72 5.07 128.44 4.97L128.44 4.97L128.44 4.97Q129.15 4.87 129.77 4.87L129.77 4.87L129.77 4.87Q131.45 4.87 132.37 5.56L132.37 5.56L132.37 5.56Q133.29 6.26 133.29 7.46ZM129.71 6.02L129.88 6.29L129.88 6.29Q129.78 6.41 129.57 6.79L129.57 6.79L129.57 6.79Q129.36 7.17 129.09 7.69L129.09 7.69L129.09 7.69Q128.81 8.22 128.51 8.83L128.51 8.83L128.51 8.83Q128.21 9.45 127.93 10.05L127.93 10.05L127.93 10.05Q128.98 10.05 129.86 9.86L129.86 9.86L129.86 9.86Q130.75 9.66 131.39 9.30L131.39 9.30L131.39 9.30Q132.03 8.95 132.39 8.46L132.39 8.46L132.39 8.46Q132.75 7.98 132.75 7.39L132.75 7.39L132.75 7.39Q132.75 6.69 132.24 6.32L132.24 6.32L132.24 6.32Q131.74 5.95 130.69 5.95L130.69 5.95L130.69 5.95Q130.45 5.95 130.21 5.97L130.21 5.97L130.21 5.97Q129.98 5.99 129.71 6.02L129.71 6.02ZM146.12 9.21L146.12 9.21L146.12 9.21Q146.58 9.21 146.84 9.46L146.84 9.46L146.84 9.46Q147.10 9.72 147.10 10.16L147.10 10.16L147.10 10.16Q147.10 10.28 147.08 10.39L147.08 10.39L147.08 10.39Q147.06 10.51 147.03 10.60L147.03 10.60L147.03 10.60Q146.85 10.57 146.62 10.55L146.62 10.55L146.62 10.55Q146.40 10.53 146.09 10.53L146.09 10.53L146.09 10.53Q145.49 10.53 144.87 10.63L144.87 10.63L144.87 10.63Q144.26 10.74 143.70 10.81L143.70 10.81L143.70 10.81Q143.37 11.55 143.11 12.24L143.11 12.24L143.11 12.24Q142.84 12.94 142.65 13.51L142.65 13.51L142.65 13.51Q142.46 14.08 142.36 14.50L142.36 14.50L142.36 14.50Q142.25 14.92 142.24 15.13L142.24 15.13L142.24 15.13Q143.37 14.90 144.53 14.73L144.53 14.73L144.53 14.73Q145.68 14.56 146.96 14.48L146.96 14.48L146.96 14.48Q147.11 14.71 147.22 14.99L147.22 14.99L147.22 14.99Q147.32 15.27 147.32 15.60L147.32 15.60L147.32 15.60Q147.32 15.68 147.32 15.78L147.32 15.78L147.32 15.78Q147.32 15.88 147.29 15.97L147.29 15.97L147.29 15.97Q146.90 15.96 146.47 15.95L146.47 15.95L146.47 15.95Q146.03 15.95 145.33 15.95L145.33 15.95L145.33 15.95Q144.87 15.95 144.46 15.97L144.46 15.97L144.46 15.97Q144.05 15.99 143.63 16.03L143.63 16.03L143.63 16.03Q143.21 16.07 142.74 16.14L142.74 16.14L142.74 16.14Q142.27 16.21 141.68 16.31L141.68 16.31L141.68 16.31Q141.04 16.06 140.43 15.08L140.43 15.08L140.43 15.08Q140.67 14.57 141.10 13.54L141.10 13.54L141.10 13.54Q141.53 12.52 142.18 10.79L142.18 10.79L142.18 10.79Q141.55 10.60 141.36 10.09L141.36 10.09L141.36 10.09Q141.43 10.02 141.76 9.92L141.76 9.92L141.76 9.92Q142.10 9.81 142.59 9.70L142.59 9.70L142.59 9.70Q142.80 9.16 142.95 8.75L142.95 8.75L142.95 8.75Q143.09 8.34 143.21 7.99L143.21 7.99L143.21 7.99Q143.32 7.63 143.41 7.29L143.41 7.29L143.41 7.29Q143.50 6.94 143.58 6.54L143.58 6.54L143.58 6.54Q143.09 6.51 142.81 6.27L142.81 6.27L142.81 6.27Q142.53 6.02 142.53 5.63L142.53 5.63L142.53 5.63Q142.53 5.52 142.57 5.36L142.57 5.36L142.57 5.36Q142.60 5.21 142.65 5.10L142.65 5.10L142.65 5.10Q142.93 5.14 143.19 5.15L143.19 5.15L143.19 5.15Q143.44 5.17 143.86 5.17L143.86 5.17L143.86 5.17Q144.75 5.17 145.52 5.12L145.52 5.12L145.52 5.12Q146.29 5.07 146.91 5.01L146.91 5.01L146.91 5.01Q147.53 4.96 147.98 4.91L147.98 4.91L147.98 4.91Q148.43 4.86 148.67 4.86L148.67 4.86L148.67 4.86Q148.99 4.86 149.24 5.19L149.24 5.19L149.24 5.19Q149.49 5.53 149.62 6.15L149.62 6.15L149.62 6.15Q149.18 6.10 148.91 6.09L148.91 6.09L148.91 6.09Q148.64 6.08 148.43 6.08L148.43 6.08L148.43 6.08Q147.66 6.08 147.02 6.15L147.02 6.15L147.02 6.15Q146.38 6.23 145.80 6.31L145.80 6.31L145.80 6.31Q145.71 6.44 145.61 6.64L145.61 6.64L145.61 6.64Q145.50 6.83 145.33 7.18L145.33 7.18L145.33 7.18Q145.17 7.53 144.92 8.06L144.92 8.06L144.92 8.06Q144.68 8.60 144.33 9.39L144.33 9.39L144.33 9.39Q144.86 9.31 145.33 9.26L145.33 9.26L145.33 9.26Q145.80 9.21 146.12 9.21ZM161.64 9.21L161.64 9.21L161.64 9.21Q162.11 9.21 162.37 9.46L162.37 9.46L162.37 9.46Q162.62 9.72 162.62 10.16L162.62 10.16L162.62 10.16Q162.62 10.28 162.60 10.39L162.60 10.39L162.60 10.39Q162.58 10.51 162.55 10.60L162.55 10.60L162.55 10.60Q162.37 10.57 162.15 10.55L162.15 10.55L162.15 10.55Q161.92 10.53 161.62 10.53L161.62 10.53L161.62 10.53Q161.01 10.53 160.40 10.63L160.40 10.63L160.40 10.63Q159.78 10.74 159.22 10.81L159.22 10.81L159.22 10.81Q158.90 11.55 158.63 12.24L158.63 12.24L158.63 12.24Q158.37 12.94 158.18 13.51L158.18 13.51L158.18 13.51Q157.99 14.08 157.89 14.50L157.89 14.50L157.89 14.50Q157.78 14.92 157.77 15.13L157.77 15.13L157.77 15.13Q158.90 14.90 160.06 14.73L160.06 14.73L160.06 14.73Q161.21 14.56 162.48 14.48L162.48 14.48L162.48 14.48Q162.64 14.71 162.74 14.99L162.74 14.99L162.74 14.99Q162.85 15.27 162.85 15.60L162.85 15.60L162.85 15.60Q162.85 15.68 162.85 15.78L162.85 15.78L162.85 15.78Q162.85 15.88 162.82 15.97L162.82 15.97L162.82 15.97Q162.43 15.96 161.99 15.95L161.99 15.95L161.99 15.95Q161.56 15.95 160.86 15.95L160.86 15.95L160.86 15.95Q160.40 15.95 159.99 15.97L159.99 15.97L159.99 15.97Q159.57 15.99 159.15 16.03L159.15 16.03L159.15 16.03Q158.73 16.07 158.26 16.14L158.26 16.14L158.26 16.14Q157.79 16.21 157.21 16.31L157.21 16.31L157.21 16.31Q156.56 16.06 155.96 15.08L155.96 15.08L155.96 15.08Q156.20 14.57 156.63 13.54L156.63 13.54L156.63 13.54Q157.05 12.52 157.71 10.79L157.71 10.79L157.71 10.79Q157.08 10.60 156.88 10.09L156.88 10.09L156.88 10.09Q156.95 10.02 157.29 9.92L157.29 9.92L157.29 9.92Q157.63 9.81 158.12 9.70L158.12 9.70L158.12 9.70Q158.33 9.16 158.47 8.75L158.47 8.75L158.47 8.75Q158.62 8.34 158.73 7.99L158.73 7.99L158.73 7.99Q158.84 7.63 158.94 7.29L158.94 7.29L158.94 7.29Q159.03 6.94 159.11 6.54L159.11 6.54L159.11 6.54Q158.62 6.51 158.34 6.27L158.34 6.27L158.34 6.27Q158.06 6.02 158.06 5.63L158.06 5.63L158.06 5.63Q158.06 5.52 158.09 5.36L158.09 5.36L158.09 5.36Q158.13 5.21 158.17 5.10L158.17 5.10L158.17 5.10Q158.45 5.14 158.71 5.15L158.71 5.15L158.71 5.15Q158.97 5.17 159.39 5.17L159.39 5.17L159.39 5.17Q160.27 5.17 161.04 5.12L161.04 5.12L161.04 5.12Q161.81 5.07 162.44 5.01L162.44 5.01L162.44 5.01Q163.06 4.96 163.51 4.91L163.51 4.91L163.51 4.91Q163.95 4.86 164.19 4.86L164.19 4.86L164.19 4.86Q164.51 4.86 164.77 5.19L164.77 5.19L164.77 5.19Q165.02 5.53 165.14 6.15L165.14 6.15L165.14 6.15Q164.71 6.10 164.44 6.09L164.44 6.09L164.44 6.09Q164.16 6.08 163.95 6.08L163.95 6.08L163.95 6.08Q163.18 6.08 162.55 6.15L162.55 6.15L162.55 6.15Q161.91 6.23 161.32 6.31L161.32 6.31L161.32 6.31Q161.24 6.44 161.13 6.64L161.13 6.64L161.13 6.64Q161.03 6.83 160.86 7.18L160.86 7.18L160.86 7.18Q160.69 7.53 160.45 8.06L160.45 8.06L160.45 8.06Q160.20 8.60 159.85 9.39L159.85 9.39L159.85 9.39Q160.38 9.31 160.85 9.26L160.85 9.26L160.85 9.26Q161.32 9.21 161.64 9.21ZM182.66 14.45L182.66 14.45L182.66 14.45Q182.87 13.99 183.16 13.26L183.16 13.26L183.16 13.26Q183.46 12.53 183.78 11.68L183.78 11.68L183.78 11.68Q184.10 10.84 184.44 9.95L184.44 9.95L184.44 9.95Q184.77 9.06 185.07 8.26L185.07 8.26L185.07 8.26Q185.36 7.46 185.58 6.83L185.58 6.83L185.58 6.83Q185.79 6.20 185.89 5.87L185.89 5.87L185.89 5.87Q185.01 6.23 184.38 6.97L184.38 6.97L184.38 6.97Q183.75 7.71 183.43 8.83L183.43 8.83L183.43 8.83Q183.11 8.72 182.84 8.43L182.84 8.43L182.84 8.43Q182.57 8.15 182.49 7.71L182.49 7.71L182.49 7.71Q182.63 7.07 183.02 6.54L183.02 6.54L183.02 6.54Q183.40 6.01 183.99 5.63L183.99 5.63L183.99 5.63Q184.58 5.25 185.35 5.05L185.35 5.05L185.35 5.05Q186.12 4.84 187.00 4.84L187.00 4.84L187.00 4.84Q188.12 4.84 189.06 5.17L189.06 5.17L189.06 5.17Q189.99 5.50 190.67 6.09L190.67 6.09L190.67 6.09Q191.34 6.68 191.72 7.50L191.72 7.50L191.72 7.50Q192.09 8.33 192.09 9.34L192.09 9.34L192.09 9.34Q192.09 10.71 191.59 11.96L191.59 11.96L191.59 11.96Q191.09 13.20 190.23 14.15L190.23 14.15L190.23 14.15Q189.36 15.11 188.23 15.67L188.23 15.67L188.23 15.67Q187.10 16.24 185.85 16.24L185.85 16.24L185.85 16.24Q184.70 16.24 183.88 15.79L183.88 15.79L183.88 15.79Q183.06 15.33 182.66 14.45ZM187.60 5.54L187.60 5.54L187.60 5.54Q186.90 5.54 186.27 5.74L186.27 5.74L186.27 5.74Q186.89 5.96 187.29 6.21L187.29 6.21L187.29 6.21Q187.70 6.45 187.85 6.59L187.85 6.59L187.85 6.59Q187.74 6.75 187.52 7.14L187.52 7.14L187.52 7.14Q187.31 7.53 187.02 8.09L187.02 8.09L187.02 8.09Q186.73 8.65 186.41 9.32L186.41 9.32L186.41 9.32Q186.09 9.98 185.78 10.68L185.78 10.68L185.78 10.68Q184.98 12.46 184.63 13.48L184.63 13.48L184.63 13.48Q184.27 14.50 184.27 14.90L184.27 14.90L184.27 14.90Q184.46 14.97 184.74 14.99L184.74 14.99L184.74 14.99Q185.02 15.02 185.35 15.02L185.35 15.02L185.35 15.02Q186.48 15.02 187.50 14.50L187.50 14.50L187.50 14.50Q188.51 13.97 189.27 13.09L189.27 13.09L189.27 13.09Q190.04 12.21 190.48 11.04L190.48 11.04L190.48 11.04Q190.92 9.87 190.92 8.58L190.92 8.58L190.92 8.58Q190.92 7.14 190.02 6.34L190.02 6.34L190.02 6.34Q189.13 5.54 187.60 5.54ZM205.39 9.21L205.39 9.21L205.39 9.21Q205.86 9.21 206.12 9.46L206.12 9.46L206.12 9.46Q206.37 9.72 206.37 10.16L206.37 10.16L206.37 10.16Q206.37 10.28 206.35 10.39L206.35 10.39L206.35 10.39Q206.33 10.51 206.30 10.60L206.30 10.60L206.30 10.60Q206.12 10.57 205.90 10.55L205.90 10.55L205.90 10.55Q205.67 10.53 205.37 10.53L205.37 10.53L205.37 10.53Q204.76 10.53 204.15 10.63L204.15 10.63L204.15 10.63Q203.53 10.74 202.97 10.81L202.97 10.81L202.97 10.81Q202.65 11.55 202.38 12.24L202.38 12.24L202.38 12.24Q202.12 12.94 201.93 13.51L201.93 13.51L201.93 13.51Q201.74 14.08 201.64 14.50L201.64 14.50L201.64 14.50Q201.53 14.92 201.52 15.13L201.52 15.13L201.52 15.13Q202.65 14.90 203.81 14.73L203.81 14.73L203.81 14.73Q204.96 14.56 206.23 14.48L206.23 14.48L206.23 14.48Q206.39 14.71 206.49 14.99L206.49 14.99L206.49 14.99Q206.60 15.27 206.60 15.60L206.60 15.60L206.60 15.60Q206.60 15.68 206.60 15.78L206.60 15.78L206.60 15.78Q206.60 15.88 206.57 15.97L206.57 15.97L206.57 15.97Q206.18 15.96 205.74 15.95L205.74 15.95L205.74 15.95Q205.31 15.95 204.61 15.95L204.61 15.95L204.61 15.95Q204.15 15.95 203.74 15.97L203.74 15.97L203.74 15.97Q203.32 15.99 202.90 16.03L202.90 16.03L202.90 16.03Q202.48 16.07 202.01 16.14L202.01 16.14L202.01 16.14Q201.54 16.21 200.96 16.31L200.96 16.31L200.96 16.31Q200.31 16.06 199.71 15.08L199.71 15.08L199.71 15.08Q199.95 14.57 200.38 13.54L200.38 13.54L200.38 13.54Q200.80 12.52 201.46 10.79L201.46 10.79L201.46 10.79Q200.83 10.60 200.63 10.09L200.63 10.09L200.63 10.09Q200.70 10.02 201.04 9.92L201.04 9.92L201.04 9.92Q201.38 9.81 201.87 9.70L201.87 9.70L201.87 9.70Q202.08 9.16 202.22 8.75L202.22 8.75L202.22 8.75Q202.37 8.34 202.48 7.99L202.48 7.99L202.48 7.99Q202.59 7.63 202.69 7.29L202.69 7.29L202.69 7.29Q202.78 6.94 202.86 6.54L202.86 6.54L202.86 6.54Q202.37 6.51 202.09 6.27L202.09 6.27L202.09 6.27Q201.81 6.02 201.81 5.63L201.81 5.63L201.81 5.63Q201.81 5.52 201.84 5.36L201.84 5.36L201.84 5.36Q201.88 5.21 201.92 5.10L201.92 5.10L201.92 5.10Q202.20 5.14 202.46 5.15L202.46 5.15L202.46 5.15Q202.72 5.17 203.14 5.17L203.14 5.17L203.14 5.17Q204.02 5.17 204.79 5.12L204.79 5.12L204.79 5.12Q205.56 5.07 206.19 5.01L206.19 5.01L206.19 5.01Q206.81 4.96 207.26 4.91L207.26 4.91L207.26 4.91Q207.70 4.86 207.94 4.86L207.94 4.86L207.94 4.86Q208.26 4.86 208.52 5.19L208.52 5.19L208.52 5.19Q208.77 5.53 208.89 6.15L208.89 6.15L208.89 6.15Q208.46 6.10 208.19 6.09L208.19 6.09L208.19 6.09Q207.91 6.08 207.70 6.08L207.70 6.08L207.70 6.08Q206.93 6.08 206.30 6.15L206.30 6.15L206.30 6.15Q205.66 6.23 205.07 6.31L205.07 6.31L205.07 6.31Q204.99 6.44 204.88 6.64L204.88 6.64L204.88 6.64Q204.78 6.83 204.61 7.18L204.61 7.18L204.61 7.18Q204.44 7.53 204.20 8.06L204.20 8.06L204.20 8.06Q203.95 8.60 203.60 9.39L203.60 9.39L203.60 9.39Q204.13 9.31 204.60 9.26L204.60 9.26L204.60 9.26Q205.07 9.21 205.39 9.21ZM220.35 14.38L220.35 14.38L220.35 14.38Q220.70 14.98 220.70 15.54L220.70 15.54L220.70 15.54Q220.70 15.67 220.68 15.77L220.68 15.77L220.68 15.77Q220.65 15.88 220.63 15.99L220.63 15.99L220.63 15.99Q220.39 15.96 220.13 15.95L220.13 15.95L220.13 15.95Q219.87 15.93 219.59 15.93L219.59 15.93L219.59 15.93Q219.25 15.93 218.91 15.95L218.91 15.95L218.91 15.95Q218.57 15.97 218.15 16.02L218.15 16.02L218.15 16.02Q217.73 16.06 217.21 16.13L217.21 16.13L217.21 16.13Q216.69 16.20 216.01 16.31L216.01 16.31L216.01 16.31Q215.68 16.20 215.36 15.87L215.36 15.87L215.36 15.87Q215.04 15.54 214.76 15.08L214.76 15.08L214.76 15.08Q214.90 14.77 215.11 14.31L215.11 14.31L215.11 14.31Q215.32 13.86 215.60 13.21L215.60 13.21L215.60 13.21Q215.88 12.56 216.22 11.68L216.22 11.68L216.22 11.68Q216.57 10.81 216.96 9.66L216.96 9.66L216.96 9.66Q217.21 8.90 217.39 8.33L217.39 8.33L217.39 8.33Q217.57 7.76 217.72 7.22L217.72 7.22L217.72 7.22Q217.87 6.68 218.01 6.09L218.01 6.09L218.01 6.09Q218.15 5.50 218.32 4.73L218.32 4.73L218.32 4.73Q218.88 4.84 219.29 5.14L219.29 5.14L219.29 5.14Q219.70 5.45 220.08 6.01L220.08 6.01L220.08 6.01Q219.97 6.19 219.79 6.59L219.79 6.59L219.79 6.59Q219.60 7 219.36 7.58L219.36 7.58L219.36 7.58Q219.11 8.16 218.82 8.90L218.82 8.90L218.82 8.90Q218.53 9.63 218.20 10.47L218.20 10.47L218.20 10.47Q217.90 11.30 217.60 12.03L217.60 12.03L217.60 12.03Q217.31 12.75 217.08 13.34L217.08 13.34L217.08 13.34Q216.85 13.93 216.71 14.35L216.71 14.35L216.71 14.35Q216.57 14.77 216.57 14.98L216.57 14.98L216.57 14.98Q216.79 14.97 216.97 14.95L216.97 14.95L216.97 14.95Q217.15 14.94 217.35 14.90L217.35 14.90L217.35 14.90Q217.55 14.87 217.78 14.82L217.78 14.82L217.78 14.82Q218.01 14.77 218.33 14.69L218.33 14.69L218.33 14.69Q218.61 14.62 218.85 14.57L218.85 14.57L218.85 14.57Q219.09 14.52 219.32 14.48L219.32 14.48L219.32 14.48Q219.55 14.45 219.79 14.43L219.79 14.43L219.79 14.43Q220.04 14.41 220.35 14.38ZM229.31 14.38L229.31 14.38L229.31 14.38Q229.31 13.87 229.47 13.07L229.47 13.07L229.47 13.07Q229.63 12.26 229.89 11.33L229.89 11.33L229.89 11.33Q230.15 10.40 230.48 9.43L230.48 9.43L230.48 9.43Q230.82 8.46 231.17 7.60L231.17 7.60L231.17 7.60Q231.52 6.75 231.85 6.10L231.85 6.10L231.85 6.10Q232.19 5.46 232.46 5.18L232.46 5.18L232.46 5.18Q232.60 5.19 232.83 5.29L232.83 5.29L232.83 5.29Q233.06 5.38 233.30 5.50L233.30 5.50L233.30 5.50Q233.53 5.63 233.73 5.78L233.73 5.78L233.73 5.78Q233.93 5.92 233.98 6.05L233.98 6.05L233.98 6.05Q233.58 6.41 233.18 7.15L233.18 7.15L233.18 7.15Q232.78 7.88 232.41 8.82L232.41 8.82L232.41 8.82Q232.04 9.76 231.71 10.80L231.71 10.80L231.71 10.80Q231.39 11.84 231.15 12.82L231.15 12.82L231.15 12.82Q230.92 13.80 230.78 14.64L230.78 14.64L230.78 14.64Q230.65 15.48 230.65 16.00L230.65 16.00L230.65 16.00Q230.65 16.24 230.69 16.30L230.69 16.30L230.69 16.30Q230.38 16.28 230.24 16.19L230.24 16.19L230.24 16.19Q230.10 16.10 230.03 16.00L230.03 16.00L230.03 16.00Q229.95 15.89 229.89 15.79L229.89 15.79L229.89 15.79Q229.82 15.68 229.70 15.62L229.70 15.62L229.70 15.62Q229.60 15.58 229.53 15.43L229.53 15.43L229.53 15.43Q229.46 15.27 229.41 15.09L229.41 15.09L229.41 15.09Q229.36 14.90 229.33 14.70L229.33 14.70L229.33 14.70Q229.31 14.50 229.31 14.38ZM240.87 12.43L240.87 12.43L240.87 12.43Q240.87 11.45 241.10 10.51L241.10 10.51L241.10 10.51Q241.33 9.56 241.75 8.71L241.75 8.71L241.75 8.71Q242.17 7.87 242.75 7.16L242.75 7.16L242.75 7.16Q243.33 6.45 244.03 5.94L244.03 5.94L244.03 5.94Q244.72 5.42 245.50 5.13L245.50 5.13L245.50 5.13Q246.29 4.84 247.11 4.84L247.11 4.84L247.11 4.84Q248.08 4.84 248.62 5.25L248.62 5.25L248.62 5.25Q249.16 5.66 249.16 6.38L249.16 6.38L249.16 6.38Q249.16 6.66 249.08 6.96L249.08 6.96L249.08 6.96Q249.00 7.25 248.86 7.54L248.86 7.54L248.86 7.54Q248.71 7.83 248.51 8.09L248.51 8.09L248.51 8.09Q248.32 8.36 248.08 8.55L248.08 8.55L248.08 8.55Q247.72 8.50 247.45 8.22L247.45 8.22L247.45 8.22Q247.18 7.95 247.11 7.59L247.11 7.59L247.11 7.59Q247.60 7.18 247.89 6.74L247.89 6.74L247.89 6.74Q248.18 6.30 248.18 5.94L248.18 5.94L248.18 5.94Q248.18 5.32 247.41 5.32L247.41 5.32L247.41 5.32Q247.09 5.32 246.74 5.45L246.74 5.45L246.74 5.45Q246.40 5.59 246.05 5.82L246.05 5.82L246.05 5.82Q245.70 6.06 245.37 6.40L245.37 6.40L245.37 6.40Q245.04 6.73 244.76 7.14L244.76 7.14L244.76 7.14Q242.82 9.94 242.82 12.87L242.82 12.87L242.82 12.87Q242.82 13.90 243.14 14.53L243.14 14.53L243.14 14.53Q243.46 15.16 243.99 15.27L243.99 15.27L243.99 15.27Q244.59 15.13 245.52 14.50L245.52 14.50L245.52 14.50Q246.44 13.87 247.53 12.87L247.53 12.87L247.53 12.87Q247.67 13.01 247.70 13.16L247.70 13.16L247.70 13.16Q247.30 13.69 246.86 14.18L246.86 14.18L246.86 14.18Q246.43 14.67 246.00 15.08L246.00 15.08L246.00 15.08Q245.57 15.48 245.16 15.79L245.16 15.79L245.16 15.79Q244.75 16.10 244.40 16.27L244.40 16.27L244.40 16.27Q242.66 16.24 241.77 15.27L241.77 15.27L241.77 15.27Q240.87 14.31 240.87 12.43ZM256.31 16.24L256.31 16.24L256.31 16.24Q255.64 16.04 255.38 15.85L255.38 15.85L255.38 15.85Q255.12 15.65 255.12 15.36L255.12 15.36L255.12 15.36Q255.12 15.13 255.25 14.73L255.25 14.73L255.25 14.73Q255.37 14.32 255.62 13.77L255.62 13.77L255.62 13.77Q255.86 13.22 256.21 12.54L256.21 12.54L256.21 12.54Q256.55 11.87 256.98 11.10L256.98 11.10L256.98 11.10Q256.62 11.09 256.33 11.08L256.33 11.08L256.33 11.08Q256.05 11.07 255.86 11.07L255.86 11.07L255.86 11.07Q255.95 10.86 256.34 10.71L256.34 10.71L256.34 10.71Q256.73 10.56 257.38 10.44L257.38 10.44L257.38 10.44Q257.92 9.53 258.55 8.71L258.55 8.71L258.55 8.71Q259.17 7.88 259.80 7.19L259.80 7.19L259.80 7.19Q260.43 6.50 261.06 5.97L261.06 5.97L261.06 5.97Q261.69 5.45 262.26 5.14L262.26 5.14L262.26 5.14Q262.28 5.04 262.28 4.97L262.28 4.97L262.28 4.97Q262.29 4.90 262.29 4.87L262.29 4.87L262.29 4.87Q262.49 4.87 262.81 4.97L262.81 4.97L262.81 4.97Q263.14 5.07 263.46 5.21L263.46 5.21L263.46 5.21Q263.77 5.35 264.02 5.49L264.02 5.49L264.02 5.49Q264.26 5.64 264.29 5.74L264.29 5.74L264.29 5.74Q263.83 6.55 263.38 8.17L263.38 8.17L263.38 8.17Q262.93 9.79 262.64 12.04L262.64 12.04L262.64 12.04Q262.57 12.60 262.52 13.31L262.52 13.31L262.52 13.31Q262.47 14.03 262.47 14.91L262.47 14.91L262.47 14.91Q262.47 15.22 262.47 15.54L262.47 15.54L262.47 15.54Q262.47 15.86 262.50 16.21L262.50 16.21L262.50 16.21Q262.47 16.23 262.44 16.23L262.44 16.23L262.44 16.23Q262.42 16.23 262.33 16.23L262.33 16.23L262.33 16.23Q262.14 16.23 261.88 16.16L261.88 16.16L261.88 16.16Q261.62 16.10 261.37 16.01L261.37 16.01L261.37 16.01Q261.13 15.92 260.95 15.81L260.95 15.81L260.95 15.81Q260.78 15.69 260.74 15.61L260.74 15.61L260.74 15.61Q260.72 15.43 260.72 15.25L260.72 15.25L260.72 15.25Q260.72 15.08 260.72 14.88L260.72 14.88L260.72 14.88Q260.72 14.01 260.79 13.12L260.79 13.12L260.79 13.12Q260.85 12.22 261.00 11.27L261.00 11.27L261.00 11.27Q260.81 11.26 260.48 11.23L260.48 11.23L260.48 11.23Q260.16 11.21 259.76 11.20L259.76 11.20L259.76 11.20Q259.36 11.19 258.91 11.16L258.91 11.16L258.91 11.16Q258.45 11.14 258.02 11.13L258.02 11.13L258.02 11.13Q257.68 11.76 257.39 12.38L257.39 12.38L257.39 12.38Q257.10 13.01 256.89 13.64L256.89 13.64L256.89 13.64Q256.65 14.31 256.50 14.98L256.50 14.98L256.50 14.98Q256.35 15.65 256.31 16.24ZM261.72 7.83L261.72 7.83L261.72 7.83Q261.77 7.63 261.85 7.29L261.85 7.29L261.85 7.29Q261.93 6.94 262.00 6.57L262.00 6.57L262.00 6.57Q261.65 6.69 261.22 7.03L261.22 7.03L261.22 7.03Q260.79 7.36 260.34 7.86L260.34 7.86L260.34 7.86Q259.88 8.36 259.41 8.98L259.41 8.98L259.41 8.98Q258.94 9.60 258.51 10.30L258.51 10.30L258.51 10.30Q259.69 10.21 261.18 10.18L261.18 10.18L261.18 10.18Q261.30 9.59 261.43 9.01L261.43 9.01L261.43 9.01Q261.56 8.43 261.72 7.83ZM272.03 12.43L272.03 12.43L272.03 12.43Q272.03 11.45 272.26 10.51L272.26 10.51L272.26 10.51Q272.50 9.56 272.92 8.71L272.92 8.71L272.92 8.71Q273.34 7.87 273.92 7.16L273.92 7.16L273.92 7.16Q274.50 6.45 275.19 5.94L275.19 5.94L275.19 5.94Q275.88 5.42 276.67 5.13L276.67 5.13L276.67 5.13Q277.45 4.84 278.28 4.84L278.28 4.84L278.28 4.84Q279.24 4.84 279.78 5.25L279.78 5.25L279.78 5.25Q280.32 5.66 280.32 6.38L280.32 6.38L280.32 6.38Q280.32 6.66 280.25 6.96L280.25 6.96L280.25 6.96Q280.17 7.25 280.02 7.54L280.02 7.54L280.02 7.54Q279.87 7.83 279.68 8.09L279.68 8.09L279.68 8.09Q279.48 8.36 279.24 8.55L279.24 8.55L279.24 8.55Q278.88 8.50 278.61 8.22L278.61 8.22L278.61 8.22Q278.35 7.95 278.28 7.59L278.28 7.59L278.28 7.59Q278.77 7.18 279.06 6.74L279.06 6.74L279.06 6.74Q279.34 6.30 279.34 5.94L279.34 5.94L279.34 5.94Q279.34 5.32 278.57 5.32L278.57 5.32L278.57 5.32Q278.25 5.32 277.91 5.45L277.91 5.45L277.91 5.45Q277.56 5.59 277.21 5.82L277.21 5.82L277.21 5.82Q276.86 6.06 276.53 6.40L276.53 6.40L276.53 6.40Q276.21 6.73 275.93 7.14L275.93 7.14L275.93 7.14Q273.98 9.94 273.98 12.87L273.98 12.87L273.98 12.87Q273.98 13.90 274.30 14.53L274.30 14.53L274.30 14.53Q274.62 15.16 275.16 15.27L275.16 15.27L275.16 15.27Q275.76 15.13 276.68 14.50L276.68 14.50L276.68 14.50Q277.61 13.87 278.70 12.87L278.70 12.87L278.70 12.87Q278.84 13.01 278.87 13.16L278.87 13.16L278.87 13.16Q278.46 13.69 278.03 14.18L278.03 14.18L278.03 14.18Q277.59 14.67 277.16 15.08L277.16 15.08L277.16 15.08Q276.74 15.48 276.32 15.79L276.32 15.79L276.32 15.79Q275.91 16.10 275.56 16.27L275.56 16.27L275.56 16.27Q273.83 16.24 272.93 15.27L272.93 15.27L272.93 15.27Q272.03 14.31 272.03 12.43ZM287.34 14.38L287.34 14.38L287.34 14.38Q287.34 13.87 287.50 13.07L287.50 13.07L287.50 13.07Q287.66 12.26 287.92 11.33L287.92 11.33L287.92 11.33Q288.18 10.40 288.51 9.43L288.51 9.43L288.51 9.43Q288.85 8.46 289.20 7.60L289.20 7.60L289.20 7.60Q289.55 6.75 289.88 6.10L289.88 6.10L289.88 6.10Q290.22 5.46 290.49 5.18L290.49 5.18L290.49 5.18Q290.63 5.19 290.86 5.29L290.86 5.29L290.86 5.29Q291.09 5.38 291.33 5.50L291.33 5.50L291.33 5.50Q291.56 5.63 291.76 5.78L291.76 5.78L291.76 5.78Q291.96 5.92 292.01 6.05L292.01 6.05L292.01 6.05Q291.61 6.41 291.21 7.15L291.21 7.15L291.21 7.15Q290.81 7.88 290.44 8.82L290.44 8.82L290.44 8.82Q290.07 9.76 289.74 10.80L289.74 10.80L289.74 10.80Q289.42 11.84 289.18 12.82L289.18 12.82L289.18 12.82Q288.95 13.80 288.81 14.64L288.81 14.64L288.81 14.64Q288.68 15.48 288.68 16.00L288.68 16.00L288.68 16.00Q288.68 16.24 288.72 16.30L288.72 16.30L288.72 16.30Q288.41 16.28 288.27 16.19L288.27 16.19L288.27 16.19Q288.13 16.10 288.06 16.00L288.06 16.00L288.06 16.00Q287.98 15.89 287.92 15.79L287.92 15.79L287.92 15.79Q287.85 15.68 287.73 15.62L287.73 15.62L287.73 15.62Q287.63 15.58 287.56 15.43L287.56 15.43L287.56 15.43Q287.49 15.27 287.44 15.09L287.44 15.09L287.44 15.09Q287.39 14.90 287.36 14.70L287.36 14.70L287.36 14.70Q287.34 14.50 287.34 14.38ZM304.11 9.21L304.11 9.21L304.11 9.21Q304.57 9.21 304.83 9.46L304.83 9.46L304.83 9.46Q305.09 9.72 305.09 10.16L305.09 10.16L305.09 10.16Q305.09 10.28 305.07 10.39L305.07 10.39L305.07 10.39Q305.05 10.51 305.02 10.60L305.02 10.60L305.02 10.60Q304.84 10.57 304.61 10.55L304.61 10.55L304.61 10.55Q304.39 10.53 304.08 10.53L304.08 10.53L304.08 10.53Q303.48 10.53 302.86 10.63L302.86 10.63L302.86 10.63Q302.25 10.74 301.69 10.81L301.69 10.81L301.69 10.81Q301.36 11.55 301.10 12.24L301.10 12.24L301.10 12.24Q300.83 12.94 300.64 13.51L300.64 13.51L300.64 13.51Q300.45 14.08 300.35 14.50L300.35 14.50L300.35 14.50Q300.24 14.92 300.23 15.13L300.23 15.13L300.23 15.13Q301.36 14.90 302.52 14.73L302.52 14.73L302.52 14.73Q303.67 14.56 304.95 14.48L304.95 14.48L304.95 14.48Q305.10 14.71 305.21 14.99L305.21 14.99L305.21 14.99Q305.31 15.27 305.31 15.60L305.31 15.60L305.31 15.60Q305.31 15.68 305.31 15.78L305.31 15.78L305.31 15.78Q305.31 15.88 305.28 15.97L305.28 15.97L305.28 15.97Q304.89 15.96 304.46 15.95L304.46 15.95L304.46 15.95Q304.02 15.95 303.32 15.95L303.32 15.95L303.32 15.95Q302.86 15.95 302.45 15.97L302.45 15.97L302.45 15.97Q302.04 15.99 301.62 16.03L301.62 16.03L301.62 16.03Q301.20 16.07 300.73 16.14L300.73 16.14L300.73 16.14Q300.26 16.21 299.67 16.31L299.67 16.31L299.67 16.31Q299.03 16.06 298.42 15.08L298.42 15.08L298.42 15.08Q298.66 14.57 299.09 13.54L299.09 13.54L299.09 13.54Q299.52 12.52 300.17 10.79L300.17 10.79L300.17 10.79Q299.54 10.60 299.35 10.09L299.35 10.09L299.35 10.09Q299.42 10.02 299.75 9.92L299.75 9.92L299.75 9.92Q300.09 9.81 300.58 9.70L300.58 9.70L300.58 9.70Q300.79 9.16 300.94 8.75L300.94 8.75L300.94 8.75Q301.08 8.34 301.20 7.99L301.20 7.99L301.20 7.99Q301.31 7.63 301.40 7.29L301.40 7.29L301.40 7.29Q301.49 6.94 301.57 6.54L301.57 6.54L301.57 6.54Q301.08 6.51 300.80 6.27L300.80 6.27L300.80 6.27Q300.52 6.02 300.52 5.63L300.52 5.63L300.52 5.63Q300.52 5.52 300.56 5.36L300.56 5.36L300.56 5.36Q300.59 5.21 300.64 5.10L300.64 5.10L300.64 5.10Q300.92 5.14 301.18 5.15L301.18 5.15L301.18 5.15Q301.43 5.17 301.85 5.17L301.85 5.17L301.85 5.17Q302.74 5.17 303.51 5.12L303.51 5.12L303.51 5.12Q304.28 5.07 304.90 5.01L304.90 5.01L304.90 5.01Q305.52 4.96 305.97 4.91L305.97 4.91L305.97 4.91Q306.42 4.86 306.66 4.86L306.66 4.86L306.66 4.86Q306.98 4.86 307.23 5.19L307.23 5.19L307.23 5.19Q307.48 5.53 307.61 6.15L307.61 6.15L307.61 6.15Q307.17 6.10 306.90 6.09L306.90 6.09L306.90 6.09Q306.63 6.08 306.42 6.08L306.42 6.08L306.42 6.08Q305.65 6.08 305.01 6.15L305.01 6.15L305.01 6.15Q304.37 6.23 303.79 6.31L303.79 6.31L303.79 6.31Q303.70 6.44 303.60 6.64L303.60 6.64L303.60 6.64Q303.49 6.83 303.32 7.18L303.32 7.18L303.32 7.18Q303.16 7.53 302.91 8.06L302.91 8.06L302.91 8.06Q302.67 8.60 302.32 9.39L302.32 9.39L302.32 9.39Q302.85 9.31 303.32 9.26L303.32 9.26L303.32 9.26Q303.79 9.21 304.11 9.21ZM322.98 5.74L322.98 5.74L322.98 5.74Q323.02 5.98 323.04 6.07L323.04 6.07L323.04 6.07Q323.06 6.16 323.06 6.31L323.06 6.31L323.06 6.31Q323.06 6.78 322.86 7.18L322.86 7.18L322.86 7.18Q322.66 7.57 322.31 7.74L322.31 7.74L322.31 7.74Q322.03 7.36 321.62 7.09L321.62 7.09L321.62 7.09Q321.22 6.82 320.73 6.64L320.73 6.64L320.73 6.64Q320.25 6.47 319.73 6.38L319.73 6.38L319.73 6.38Q319.21 6.30 318.72 6.30L318.72 6.30L318.72 6.30Q318.23 6.30 317.81 6.38L317.81 6.38L317.81 6.38Q317.38 6.45 317.05 6.59L317.05 6.59L317.05 6.59Q316.72 6.72 316.53 6.92L316.53 6.92L316.53 6.92Q316.34 7.11 316.34 7.36L316.34 7.36L316.34 7.36Q316.39 7.67 316.72 7.99L316.72 7.99L316.72 7.99Q317.06 8.30 317.55 8.60L317.55 8.60L317.55 8.60Q318.04 8.90 318.63 9.20L318.63 9.20L318.63 9.20Q319.23 9.49 319.80 9.76L319.80 9.76L319.80 9.76Q320.52 10.09 321.03 10.38L321.03 10.38L321.03 10.38Q321.55 10.67 321.89 11.01L321.89 11.01L321.89 11.01Q322.22 11.35 322.39 11.79L322.39 11.79L322.39 11.79Q322.56 12.22 322.56 12.84L322.56 12.84L322.56 12.84Q322.56 13.55 322.32 14.18L322.32 14.18L322.32 14.18Q322.08 14.80 321.63 15.26L321.63 15.26L321.63 15.26Q321.17 15.72 320.53 15.98L320.53 15.98L320.53 15.98Q319.89 16.24 319.09 16.24L319.09 16.24L319.09 16.24Q318.30 16.24 317.39 16.00L317.39 16.00L317.39 16.00Q316.48 15.76 315.69 15.35L315.69 15.35L315.69 15.35Q314.90 14.94 314.38 14.40L314.38 14.40L314.38 14.40Q313.85 13.86 313.85 13.26L313.85 13.26L313.85 13.26Q313.85 12.98 314.01 12.54L314.01 12.54L314.01 12.54Q314.17 12.11 314.59 11.63L314.59 11.63L314.59 11.63Q314.64 12.05 315.05 12.63L315.05 12.63L315.05 12.63Q315.46 13.20 316.29 13.69L316.29 13.69L316.29 13.69Q317.06 14.14 317.88 14.34L317.88 14.34L317.88 14.34Q318.70 14.55 319.41 14.55L319.41 14.55L319.41 14.55Q320.19 14.55 320.68 14.35L320.68 14.35L320.68 14.35Q321.17 14.15 321.45 13.88L321.45 13.88L321.45 13.88Q321.73 13.61 321.85 13.33L321.85 13.33L321.85 13.33Q321.96 13.05 321.97 12.88L321.97 12.88L321.97 12.88Q321.96 12.60 321.71 12.34L321.71 12.34L321.71 12.34Q321.47 12.08 321.06 11.84L321.06 11.84L321.06 11.84Q320.64 11.59 320.10 11.34L320.10 11.34L320.10 11.34Q319.55 11.09 318.96 10.84L318.96 10.84L318.96 10.84Q318.08 10.44 317.44 10.10L317.44 10.10L317.44 10.10Q316.81 9.76 316.39 9.40L316.39 9.40L316.39 9.40Q315.98 9.04 315.79 8.65L315.79 8.65L315.79 8.65Q315.60 8.26 315.60 7.76L315.60 7.76L315.60 7.76Q315.60 6.97 316.08 6.27L316.08 6.27L316.08 6.27Q316.55 5.57 317.45 5.21L317.45 5.21L317.45 5.21Q317.90 5.01 318.41 4.93L318.41 4.93L318.41 4.93Q318.92 4.84 319.41 4.84L319.41 4.84L319.41 4.84Q320.33 4.84 321.22 5.10L321.22 5.10L321.22 5.10Q322.10 5.35 322.98 5.74Z"></path></g></svg>